<?xml version="1.0" standalone="no"?><!DOCTYPE svg PUBLIC "-//W3C//DTD SVG 1.1//EN" "http://www.w3.org/Graphics/SVG/1.1/DTD/svg11.dtd"><svg t="1677597270644" class="icon" viewBox="0 0 1024 1024" version="1.1" xmlns="http://www.w3.org/2000/svg" p-id="219027" xmlns:xlink="http://www.w3.org/1999/xlink" width="128" height="128"><path d="M238.765 196.903c15.986 47.357 12.182 101.21-14.998 148.057-27.397 47.218-72.867 77.53-122.534 87.184-5.095 25.97-7.765 52.802-7.765 80.254 0 26.005 2.395 51.453 6.977 76.137 49.975 9.486 95.78 39.869 123.322 87.336 27.766 47.856 31.137 103.026 13.937 151.109 39.66 34.275 85.866 61.246 136.502 78.808 33.248-38.99 82.852-63.734 138.263-63.734 55.292 0 104.802 24.637 138.048 63.483 50.186-17.51 96.003-44.268 135.387-78.22-17.339-48.162-14.016-103.477 13.815-151.445 27.64-47.638 73.672-78.067 123.853-87.436 4.57-24.654 6.958-50.068 6.958-76.038 0-27.416-2.661-54.215-7.743-80.153-49.876-9.54-95.572-39.9-123.068-87.287C772.473 298 768.716 244 784.837 196.56c-39.144-33.514-84.587-59.948-134.32-77.299-33.246 38.844-82.756 63.482-138.048 63.482-55.411 0-105.015-24.744-138.263-63.734-50.185 17.406-96.019 44.053-135.44 77.892v0.001z m-61.053-70.423c48.672-41.778 104.857-74.18 165.733-95.294 36.485-12.654 77.034-1.665 102.032 27.651 16.658 19.534 40.794 30.901 66.993 30.901 26.144 0 50.232-11.318 66.888-30.778 25.053-29.271 65.623-40.186 102.085-27.465 60.332 21.049 116.036 53.194 164.36 94.567 28.868 24.72 39.777 64.393 27.578 100.292-8.069 23.744-5.67 49.771 7.285 72.101 13.075 22.534 34.805 37.682 59.766 42.457 37.468 7.166 66.798 36.275 74.098 73.54 6.283 32.07 9.47 64.832 9.47 97.947 0 31.38-2.862 62.445-8.51 92.909-7.01 37.82-36.691 67.445-74.678 74.54-25.112 4.688-47.004 19.876-60.146 42.527-13.233 22.808-15.443 49.48-6.768 73.58 13.01 36.141 2.368 76.524-26.791 101.66-48.62 41.913-104.785 74.45-165.664 95.69-36.462 12.721-77.032 1.806-102.085-27.465-16.656-19.461-40.744-30.778-66.888-30.778-26.2 0-50.336 11.367-66.993 30.9-24.998 29.317-65.547 40.306-102.032 27.652-61.42-21.303-118.063-54.095-167.03-96.412-29.045-25.101-39.669-65.346-26.767-101.411 8.608-24.062 6.377-50.661-6.826-73.416-13.096-22.571-34.88-37.732-59.89-42.48-37.855-7.185-67.399-36.754-74.4-74.465C2.87 574.928 0 543.822 0 512.4c0-33.16 3.196-65.963 9.495-98.075 7.289-37.154 36.48-66.205 73.818-73.463 24.858-4.831 46.48-19.953 59.508-42.407 12.926-22.277 15.342-48.232 7.34-71.935-12.091-35.82-1.202-75.358 27.55-100.04z m334.287 575.39c104.965 0 190.053-84.674 190.053-189.122 0-104.449-85.088-189.122-190.053-189.122-104.964 0-190.052 84.673-190.052 189.122 0 104.448 85.088 189.122 190.052 189.122z m0-93.006c-53.34 0-96.584-43.032-96.584-96.116 0-53.083 43.243-96.115 96.584-96.115 53.342 0 96.585 43.03 96.585 96.115 0 53.084-43.243 96.115-96.585 96.115z" p-id="219028"></path></svg>