<?xml version="1.0" encoding="UTF-8"?>
<svg width="119px" height="119px" viewBox="0 0 119 119" version="1.1" xmlns="http://www.w3.org/2000/svg" xmlns:xlink="http://www.w3.org/1999/xlink">
    <title>客服 (2)</title>
    <g id="页面-1" stroke="none" stroke-width="1" fill="none" fill-rule="evenodd">
        <g id="客服-(2)" fill="#000000" fill-rule="nonzero">
            <path d="M59.3636223,-1.77635684e-15 C78.2584409,0.0014856224 94.2832032,13.8825696 96.9796223,32.584 C109.620584,35.2580363 118.664574,46.4153038 118.664574,59.336 C118.664574,72.2566962 109.620584,83.4139637 96.9796223,86.088 C94.2832032,104.78943 78.2584409,118.670514 59.3636223,118.672 C56.0499138,118.672 53.3636223,115.985708 53.3636223,112.672 C53.3636223,109.358292 56.0499138,106.672 59.3636223,106.672 C73.1518398,106.672903 84.542997,95.9101021 85.3236223,82.144 L85.3636223,80.672 L85.3636223,38 C85.3802311,23.9154349 74.178838,12.3786159 60.0999115,11.9797671 C46.0209851,11.5809184 34.184417,22.4650839 33.4036223,36.528 L33.3636223,38 L33.3636223,80.672 C33.3634958,83.6702862 31.1500509,86.2082331 28.1796223,86.616 L27.3636223,86.672 C13.3477417,86.685335 1.59257766,76.0959371 0.147330199,62.1547626 C-1.29791726,48.2135881 8.03505935,35.4380342 21.7556223,32.576 C24.4519832,13.8789904 40.4731874,0.00144445636 59.3636223,-1.77635684e-15 Z M12.0276223,59.336 C12.0276223,65.672 15.8756223,71.112 21.3636223,73.448 L21.3636223,45.224 C15.7002256,47.6278493 12.0216161,53.1835575 12.0196223,59.336 L12.0276223,59.336 Z M97.3636223,45.224 L97.3636223,73.448 C103.022437,71.0405598 106.695927,65.4856302 106.695927,59.336 C106.695927,53.1863698 103.022437,47.6314402 97.3636223,45.224 L97.3636223,45.224 Z" id="形状"></path>
        </g>
    </g>
</svg>